<svg width="41" height="44" viewBox="0 0 41 44" fill="none" xmlns="http://www.w3.org/2000/svg">
<path d="M40.9965 22.0911C40.9793 20.3856 41.0315 18.6715 40.9621 16.9666C40.8841 14.7158 40.2608 12.4999 39.1006 10.5782C38.0621 8.88994 36.6686 7.40124 34.9717 6.36271C32.4875 4.8562 29.9338 3.4627 27.441 1.9826C23.2599 -0.67544 17.5986 -0.657629 13.4261 2.01699C12.5344 2.53656 11.6426 3.06412 10.7429 3.57509C8.04187 5.21978 4.97726 6.4837 2.9346 9.00233C2.16446 9.93768 1.54969 10.9934 1.03012 12.0841C0.433171 13.582 0.017392 15.1659 0.00879387 16.7934C-0.00840231 19.9182 0.0087938 23.0344 0.000195782 26.1592C-0.0170004 29.1114 1.09952 32.0286 2.9868 34.2881C4.19852 35.8112 5.82602 36.9283 7.5223 37.8459C9.1068 38.772 10.7079 39.6631 12.2832 40.5985C14.1189 41.758 16.0921 42.7363 18.2478 43.1435C20.2389 43.3941 22.2901 43.3075 24.229 42.7449C25.7355 42.3126 27.0946 41.4896 28.4365 40.7109C30.8514 39.248 33.3964 37.9668 35.7425 36.3915C38.5295 34.3311 40.4683 31.0939 40.8319 27.6313C41.0831 25.7956 40.9707 23.9434 40.9965 22.0911Z" fill="url(#paint0_radial_41_1629)"/>
<path d="M20.4716 9.56871C21.4758 9.5595 22.3246 10.1571 23.1813 10.5986C23.3459 12.7365 23.1383 14.8922 23.2421 17.03C23.3201 18.2424 23.2765 19.4541 23.2765 20.6658C23.2765 21.2805 23.2851 21.8867 23.3287 22.5009C23.3459 22.8128 23.3716 22.9511 23.6056 23.1593C23.8912 23.4271 24.2806 23.6088 24.6356 23.7906C24.9297 23.938 25.5531 24.1978 25.8645 23.9294C26.5142 23.3755 26.2374 22.4057 26.3147 21.6614C26.2631 18.5796 26.4363 15.4891 26.2373 12.4079C27.6222 13.2475 29.1195 13.9052 30.3834 14.9265C31.1278 15.9915 31.2143 17.3156 31.1449 18.5709C31.0669 21.1245 31.2058 23.6782 31.102 26.2318C30.79 27.3053 30.0284 28.2058 29.0501 28.7161C26.739 30.015 24.4624 31.3828 22.1514 32.6811C20.8009 33.5034 18.8877 33.1828 17.8922 31.9797C17.797 31.1144 17.8579 30.2484 17.8579 29.3831C17.8493 26.5261 17.8665 23.6696 17.8579 20.8132C17.9702 19.8091 16.8273 19.4627 16.1094 19.1163C15.4688 18.7441 14.7417 19.3589 14.8455 20.0511C14.7675 23.4707 14.9142 26.8982 14.776 30.3178C13.1922 29.2271 10.9585 28.7339 10.0931 26.8552C9.62514 25.3924 9.87639 23.8084 9.82481 22.2933C9.8592 20.4497 9.78977 18.5974 9.89356 16.7531C9.94576 15.5844 10.8025 14.6324 11.7723 14.0784C13.6853 13.0049 15.5812 11.897 17.4771 10.7891C18.4118 10.2523 19.3551 9.61172 20.4716 9.56871Z" fill="url(#paint1_linear_41_1629)"/>
<defs>
<radialGradient id="paint0_radial_41_1629" cx="0" cy="0" r="1" gradientUnits="userSpaceOnUse" gradientTransform="translate(20.5 3.17683) rotate(90) scale(40.999 38.8421)">
<stop stop-color="#2DD4BF"/>
<stop offset="0.55" stop-color="#0EA5E9"/>
<stop offset="1" stop-color="#D946EF"/>
</radialGradient>
<linearGradient id="paint1_linear_41_1629" x1="20.4835" y1="9.5686" x2="20.4835" y2="33.1377" gradientUnits="userSpaceOnUse">
<stop stop-color="white"/>
<stop offset="1" stop-color="#F8FAFC"/>
</linearGradient>
</defs>
</svg>
