<svg width="247" height="60" viewBox="0 0 247 60" fill="none" xmlns="http://www.w3.org/2000/svg">
<path d="M55.9952 30.1242C55.9717 27.7985 56.0429 25.4611 55.9483 23.1363C55.8419 20.0669 54.9919 17.0453 53.4099 14.4249C51.9937 12.1226 50.0935 10.0926 47.7795 8.67643C44.3919 6.6221 40.9097 4.72186 37.5104 2.70354C31.8088 -0.921054 24.089 -0.896767 18.3992 2.75044C17.1831 3.45895 15.9671 4.17834 14.7402 4.87512C11.057 7.11788 6.878 8.84141 4.09255 12.2759C3.04235 13.5514 2.20404 14.991 1.49554 16.4784C0.681508 18.521 0.114537 20.6808 0.102812 22.9001C0.0793626 27.1612 0.102812 31.4106 0.0910873 35.6716C0.0676379 39.6974 1.59017 43.6754 4.16374 46.7565C5.81608 48.8334 8.03539 50.3568 10.3485 51.608C12.5092 52.8709 14.6925 54.0861 16.8406 55.3616C19.3438 56.9427 22.0346 58.2768 24.9742 58.8321C27.6893 59.1738 30.4865 59.0557 33.1304 58.2885C35.1847 57.699 37.038 56.5767 38.8679 55.5148C42.1609 53.5199 45.6314 51.773 48.8306 49.6248C52.631 46.8151 55.2749 42.4008 55.7707 37.6791C56.1132 35.1759 55.96 32.65 55.9952 30.1242Z" fill="white"/>
<path d="M28.0065 13.048C29.3757 13.0354 30.5332 13.8503 31.7015 14.4524C31.9259 17.3677 31.6429 20.3073 31.7844 23.2226C31.8907 24.8757 31.8313 26.528 31.8313 28.1804C31.8313 29.0187 31.843 29.8453 31.9025 30.6827C31.9259 31.1082 31.961 31.2967 32.2801 31.5806C32.6695 31.9457 33.2005 32.1936 33.6846 32.4414C34.0857 32.6424 34.9357 32.9967 35.3604 32.6308C36.2464 31.8754 35.8688 30.553 35.9743 29.538C35.904 25.3356 36.1402 21.1213 35.8688 16.9196C37.7573 18.0645 39.799 18.9614 41.5226 20.3541C42.5376 21.8063 42.6556 23.6119 42.561 25.3237C42.4546 28.8059 42.6439 32.2882 42.5024 35.7704C42.077 37.2343 41.0384 38.4622 39.7043 39.1581C36.553 40.9294 33.4484 42.7944 30.297 44.5649C28.4554 45.6862 25.8466 45.249 24.4891 43.6084C24.3593 42.4284 24.4423 41.2476 24.4423 40.0676C24.4306 36.1717 24.454 32.2765 24.4423 28.3814C24.5955 27.0121 23.037 26.5397 22.058 26.0674C21.1845 25.5599 20.1929 26.3983 20.3345 27.3422C20.2281 32.0052 20.4282 36.6791 20.2398 41.3422C18.0799 39.8548 15.034 39.1824 13.854 36.6206C13.2158 34.6257 13.5584 32.4658 13.4881 30.3998C13.535 27.8857 13.4403 25.3598 13.5818 22.8449C13.653 21.2512 14.8214 19.953 16.1437 19.1976C18.7524 17.7337 21.3377 16.223 23.923 14.7122C25.1976 13.9802 26.484 13.1066 28.0065 13.048Z" fill="url(#paint0_radial_2239_6435)"/>
<path d="M65.7115 45.7275V15.6904H70.3915L72.3911 21.6894V45.7275H65.7115ZM86.4311 45.7275L68.7322 23.0508L70.3915 15.6904L88.0904 38.3672L86.4311 45.7275ZM86.4311 45.7275L84.6442 39.7286V15.6904H91.3238V45.7275H86.4311ZM105.374 46.1955C103.133 46.1955 101.133 45.7417 99.3747 44.8341C97.6445 43.8981 96.2831 42.6075 95.2903 40.9624C94.2976 39.3174 93.8012 37.4595 93.8012 35.389C93.8012 33.3184 94.2834 31.4748 95.2478 29.8581C96.2405 28.213 97.5736 26.9224 99.2471 25.9864C100.921 25.0504 102.807 24.5824 104.906 24.5824C106.948 24.5824 108.749 25.0221 110.309 25.9014C111.869 26.7806 113.089 28.0003 113.968 29.5603C114.875 31.1203 115.329 32.9072 115.329 34.921C115.329 35.2897 115.301 35.6868 115.244 36.1123C115.216 36.5094 115.145 36.9774 115.031 37.5163L97.2049 37.5588V33.0915L112.266 33.049L109.458 34.921C109.43 33.7297 109.245 32.7512 108.905 31.9854C108.565 31.1912 108.054 30.5955 107.373 30.1984C106.721 29.773 105.913 29.5603 104.948 29.5603C103.927 29.5603 103.034 29.8014 102.268 30.2835C101.53 30.7374 100.949 31.3897 100.523 32.2406C100.126 33.0915 99.9278 34.1268 99.9278 35.3464C99.9278 36.5661 100.141 37.6155 100.566 38.4948C101.02 39.3457 101.644 40.0123 102.438 40.4944C103.261 40.9483 104.225 41.1752 105.331 41.1752C106.352 41.1752 107.274 41.005 108.097 40.6646C108.919 40.2959 109.642 39.757 110.266 39.0479L113.84 42.6217C112.819 43.813 111.585 44.7064 110.139 45.3021C108.692 45.8977 107.104 46.1955 105.374 46.1955ZM129.374 45.7275L124.396 37.6864L122.992 36.793L114.866 25.0504H122.481L127.119 32.581L128.48 33.4319L136.904 45.7275H129.374ZM114.483 45.7275L122.949 33.6872L126.651 37.8566L121.588 45.7275H114.483ZM128.438 36.7504L124.736 32.581L129.416 25.0504H136.479L128.438 36.7504ZM146.11 46.153C144.21 46.153 142.508 45.685 141.005 44.749C139.53 43.813 138.353 42.5366 137.474 40.9199C136.623 39.3032 136.197 37.4595 136.197 35.389C136.197 33.3184 136.623 31.4748 137.474 29.8581C138.353 28.2414 139.53 26.965 141.005 26.029C142.508 25.093 144.21 24.625 146.11 24.625C147.5 24.625 148.748 24.8944 149.854 25.4334C150.989 25.9723 151.911 26.7239 152.62 27.6883C153.329 28.6243 153.726 29.7021 153.811 30.9217V39.8563C153.726 41.0759 153.329 42.1679 152.62 43.1323C151.939 44.0683 151.032 44.8057 149.897 45.3446C148.762 45.8835 147.5 46.153 146.11 46.153ZM147.429 40.2817C148.819 40.2817 149.94 39.8279 150.79 38.9203C151.641 37.9843 152.067 36.8072 152.067 35.389C152.067 34.4246 151.868 33.5737 151.471 32.8363C151.102 32.0988 150.564 31.5315 149.854 31.1344C149.174 30.709 148.38 30.4963 147.472 30.4963C146.564 30.4963 145.756 30.709 145.047 31.1344C144.366 31.5315 143.813 32.0988 143.388 32.8363C142.99 33.5737 142.792 34.4246 142.792 35.389C142.792 36.325 142.99 37.1617 143.388 37.8992C143.785 38.6366 144.338 39.2181 145.047 39.6435C145.756 40.069 146.55 40.2817 147.429 40.2817ZM151.812 45.7275V40.1541L152.79 35.1337L151.812 30.1134V25.0504H158.193V45.7275H151.812ZM171.241 46.1955C168.717 46.1955 166.519 45.8126 164.647 45.0468C162.803 44.281 161.115 43.0755 159.584 41.4304L164.391 36.5803C165.441 37.6864 166.561 38.5374 167.752 39.133C168.944 39.7003 170.291 39.9839 171.794 39.9839C173.071 39.9839 174.049 39.7712 174.73 39.3457C175.439 38.8919 175.793 38.2821 175.793 37.5163C175.793 36.8072 175.538 36.2257 175.028 35.7719C174.517 35.2897 173.836 34.8784 172.985 34.5381C172.163 34.1694 171.241 33.829 170.22 33.517C169.227 33.1766 168.22 32.7795 167.199 32.3257C166.207 31.8435 165.285 31.2621 164.434 30.5814C163.611 29.9006 162.945 29.0497 162.434 28.0286C161.924 27.0075 161.668 25.7454 161.668 24.2421C161.668 22.3134 162.122 20.6683 163.03 19.3068C163.966 17.9454 165.256 16.8959 166.901 16.1584C168.547 15.421 170.461 15.0523 172.645 15.0523C174.829 15.0523 176.843 15.421 178.687 16.1584C180.53 16.8959 182.048 17.917 183.239 19.2217L178.389 24.0294C177.481 23.1217 176.559 22.441 175.623 21.9872C174.687 21.5334 173.666 21.3064 172.56 21.3064C171.511 21.3064 170.688 21.4908 170.092 21.8595C169.497 22.2283 169.199 22.753 169.199 23.4337C169.199 24.1144 169.454 24.6675 169.965 25.093C170.475 25.5184 171.142 25.9014 171.964 26.2417C172.815 26.5537 173.737 26.8799 174.73 27.2203C175.751 27.5606 176.758 27.9577 177.751 28.4115C178.743 28.8654 179.651 29.4468 180.473 30.1559C181.324 30.865 182.005 31.7584 182.516 32.8363C183.026 33.9141 183.281 35.2188 183.281 36.7504C183.281 39.757 182.218 42.0828 180.091 43.7279C177.992 45.373 175.042 46.1955 171.241 46.1955ZM188.117 45.7275V16.3286H195.52V45.7275H188.117ZM183.522 31.0919V24.9228H200.115V31.0919H183.522ZM209.7 46.153C207.771 46.153 206.055 45.685 204.552 44.749C203.048 43.813 201.871 42.5366 201.02 40.9199C200.17 39.2748 199.744 37.417 199.744 35.3464C199.744 33.2475 200.17 31.3755 201.02 29.7304C201.871 28.0854 203.048 26.809 204.552 25.9014C206.055 24.9654 207.771 24.4974 209.7 24.4974C211.004 24.4974 212.196 24.7384 213.274 25.2206C214.351 25.6744 215.231 26.3268 215.911 27.1777C216.62 28.0286 217.046 28.993 217.188 30.0708V40.537C217.046 41.6432 216.62 42.6217 215.911 43.4726C215.231 44.2952 214.351 44.9475 213.274 45.4297C212.196 45.9119 211.004 46.153 209.7 46.153ZM211.274 39.5584C212.494 39.5584 213.472 39.1614 214.21 38.3672C214.975 37.573 215.358 36.5519 215.358 35.3039C215.358 34.4814 215.188 33.7581 214.848 33.1341C214.507 32.5101 214.025 32.0137 213.401 31.645C212.806 31.2763 212.111 31.0919 211.316 31.0919C210.522 31.0919 209.813 31.2763 209.189 31.645C208.594 32.0137 208.111 32.5243 207.743 33.1766C207.402 33.8006 207.232 34.5097 207.232 35.3039C207.232 36.1264 207.402 36.8639 207.743 37.5163C208.083 38.1403 208.565 38.6366 209.189 39.0054C209.813 39.3741 210.508 39.5584 211.274 39.5584ZM215.06 45.7275V40.1541L216.124 35.0486L215.06 30.0283V24.9228H222.336V45.7275H215.06ZM231.504 45.7701L223.165 24.9228H231.078L236.184 42.0686H233.078L238.226 24.9228H246.139L237.588 45.7701H231.504ZM226.569 54.5344L232.738 40.9624L237.588 45.7701L234.014 54.5344H226.569Z" fill="white"/>
<defs>
<radialGradient id="paint0_radial_2239_6435" cx="0" cy="0" r="1" gradientUnits="userSpaceOnUse" gradientTransform="translate(28.0227 10.5611) rotate(90) scale(45.4974 41.236)">
<stop stop-color="#2DD4BF"/>
<stop offset="0.509615" stop-color="#0EA5E9"/>
<stop offset="1" stop-color="#D946EF"/>
</radialGradient>
</defs>
</svg>
